PathFileType	3	(X/Y/Z)	D:\minhoCalibration\240510\subject5_KPNP\preferred\preferred17.trc
DataRate	CameraRate	NumFrames	NumMarkers	Units	OrigDataRate	OrigDataStartFrame	OrigNumFrames
200.0	200.0	28	10	mm	200.0	120	170	
Frame#	Time	Left_Ankle_Outer1			Left_Ankle_Inner1			Left_Knee_Outer1			Left_Knee_Inner1			Left_Wrist1			Right_Wrist1			Right_Knee_Inner1			Right_Knee_Outer1			Right_Ankle_Inner1			Right_Ankle_Outer1			
		X1	Y1	Z1	X2	Y2	Z2	X3	Y3	Z3	X4	Y4	Z4	X5	Y5	Z5	X6	Y6	Z6	X7	Y7	Z7	X8	Y8	Z8	X9	Y9	Z9	X10	Y10	Z10	
120	0.59	31.271294	73.478012	-613.13013	-18.161215	84.95842	-617.14825	97.411339	533.70764	-490.47363	4.2544804	519.26807	-512.94073	205.09543	962.14166	-687.98804	1.0109817	994.45483	-947.38715	15.85883	455.61298	-994.28754	-13.571801	509.14551	-1061.5842	278.53528	131.68384	-1170.1033	279.03998	184.32144	-1249.5527
121	0.595	31.383459	73.339615	-612.46198	-18.424387	85.496841	-617.18024	97.29097	532.74603	-485.96765	3.0981572	519.54761	-509.29398	205.6835	963.19702	-682.6225	-1.5366751	995.67084	-939.90668	2.611937	455.28128	-985.7334	-27.124382	509.17273	-1052.3993	271.03891	137.61688	-1166.6367	271.24878	191.81924	-1245.2069
122	0.6	31.715061	73.302437	-612.04132	-18.214779	85.487923	-616.90112	97.386139	531.91754	-481.90231	2.6936941	519.16907	-506.03546	206.31636	964.29187	-677.37201	-4.5884967	997.18195	-931.30511	-11.070536	455.01099	-976.38696	-40.475449	509.72174	-1043.199	263.48941	143.78265	-1163.079	262.66885	199.69815	-1240.476
123	0.605	31.797123	73.109146	-611.70386	-17.850342	85.641548	-616.70905	97.409477	531.25964	-478.01483	4.3061643	518.55365	-502.0675	207.09789	965.52002	-672.33484	-7.0615325	998.34662	-923.8869	-24.910429	454.85431	-966.33502	-53.959282	510.50711	-1033.1464	255.73627	150.5946	-1159.4017	253.1454	207.81802	-1235.6454
124	0.61	32.299435	73.278435	-611.4646	-17.309839	85.601532	-616.93982	97.453339	530.68903	-474.44006	4.5687099	518.20251	-499.37503	207.93172	966.74274	-667.5484	-10.009686	999.89471	-915.27417	-38.766697	454.92801	-955.48285	-67.447617	511.3638	-1022.7606	247.30412	157.90253	-1155.4032	243.20639	216.77014	-1230.59
125	0.615	32.397141	72.893394	-611.23682	-17.224461	85.5979	-616.59814	97.512604	530.21484	-471.40567	4.817224	518.19525	-496.44547	209.00063	967.81848	-662.97717	-12.440765	1000.814	-907.64844	-52.409271	455.22369	-943.89343	-81.623108	511.81662	-1010.7342	238.21736	165.33011	-1150.674	232.19342	225.72705	-1225.068
126	0.62	32.679058	72.835274	-610.99286	-17.072908	85.514099	-616.56848	97.740265	529.57629	-468.76767	4.8539701	517.52936	-494.03445	209.91971	969.22729	-658.42511	-13.929898	1002.4041	-901.04089	-65.576538	455.84845	-931.80206	-95.252396	513.0379	-998.43646	228.42586	172.66319	-1145.3679	220.24992	234.34671	-1218.6638
127	0.625	32.838421	72.565186	-610.8551	-16.589497	85.380157	-617.01996	98.002068	528.89966	-466.44464	4.8766828	517.20721	-491.38626	211.0065	970.54944	-653.99695	-16.552837	1003.1103	-892.76813	-78.393341	456.86465	-919.25543	-109.57809	513.4093	-985.14038	218.24599	179.78796	-1139.4436	207.79567	243.0313	-1212.0873
128	0.63	32.961147	72.393852	-610.63043	-16.699766	85.615082	-616.57086	98.428741	528.27972	-464.42758	6.2364569	516.14252	-488.42435	211.95854	971.9726	-649.55469	-17.691189	1004.4866	-886.61957	-89.851685	457.44995	-907.71869	-123.23566	515.03369	-971.75604	206.93103	186.64146	-1132.9103	194.63055	251.49574	-1204.0818
129	0.635	33.048077	72.243896	-610.46741	-16.305803	85.402367	-617.01752	98.769417	527.66144	-462.46503	6.2886858	515.94263	-487.01221	212.99023	973.29865	-645.29797	-19.621149	1005.4564	-879.75586	-103.58021	459.79324	-892.59253	-136.56062	517.09076	-958.2807	195.74059	194.18994	-1125.3864	181.20392	259.94974	-1195.9973
130	0.64	33.371674	72.21257	-610.46521	-16.250923	85.314209	-616.59027	99.126663	527.15802	-460.52606	8.1662712	514.77014	-484.06073	213.90942	974.60919	-641.13	-21.609678	1006.6316	-872.63232	-115.62655	462.24405	-878.93042	-150.06708	519.20874	-943.94086	184.20877	202.10031	-1117.2611	166.83949	267.87695	-1187.0448
131	0.645	33.400898	72.159042	-610.20197	-16.053232	85.306427	-616.586	99.439034	526.64136	-458.67865	5.5957117	516.75385	-483.05865	214.99428	975.83179	-637.24316	-23.668615	1007.069	-865.98676	-126.8895	466.06866	-865.43842	-162.95755	522.44263	-929.94989	172.34163	210.41507	-1108.4091	152.33374	275.94788	-1177.6628
132	0.65	33.619194	72.161491	-610.11615	-15.861144	85.403587	-616.59412	99.802238	526.13409	-457.00565	8.2629614	515.07953	-480.6362	216.04773	976.96161	-633.40869	-24.73	1008.3797	-861.20142	-138.29387	468.8717	-851.77045	-175.63274	525.93909	-915.49713	160.55499	218.91573	-1098.7473	137.21834	283.38708	-1167.4385
133	0.655	33.805202	72.218582	-609.96417	-15.73338	85.505669	-616.47314	100.18803	525.63086	-455.41052	18.364271	510.57434	-489.86108	217.25873	977.89636	-629.98486	-27.139458	1009.6633	-851.79749	-151.09923	472.64813	-836.21118	-188.24637	529.88519	-900.60583	147.69522	227.05376	-1088.6256	122.51862	291.07764	-1156.965
134	0.66	33.814278	72.110817	-609.90851	-15.5741	85.653152	-616.65015	100.66407	525.15759	-453.96179	18.970558	511.12585	-488.34174	218.67319	978.54028	-627.0769	-28.694715	1011.7119	-845.42828	-162.22238	476.5322	-822.11609	-200.62538	534.09442	-884.62494	134.93835	234.84575	-1077.759	108.28053	298.58533	-1145.7285
135	0.665	34.054241	72.367226	-609.95813	-15.297855	85.737312	-616.79199	101.23083	524.73297	-452.73941	14.404052	512.77252	-482.29489	219.95219	979.7832	-623.15027	-30.20153	1013.1334	-839.62018	-172.56215	481.78992	-808.19098	-213.04662	539.12067	-869.61682	122.07594	242.47446	-1066.2714	94.359413	305.8356	-1133.9005
136	0.67	33.709557	72.034622	-609.85138	-15.341005	85.900726	-616.46118	102.0934	524.34204	-451.76825	9.7921057	514.51263	-475.87769	221.34695	980.65668	-620.16663	-32.017384	1015.3093	-832.68079	-177.59354	482.88193	-802.40381	-224.34703	545.29974	-854.26227	109.4535	249.7605	-1054.0879	80.851784	313.01697	-1121.548
137	0.675	35.021278	73.011269	-609.78168	-15.345916	86.148651	-616.20874	103.08746	523.93634	-450.92184	11.316351	514.37073	-474.90839	222.85237	981.43811	-617.42206	-34.392426	1018.221	-825.03229	-188.61787	488.6232	-787.37701	-235.97594	551.44574	-839.14929	96.696747	256.8252	-1041.4861	67.771675	320.40421	-1108.7119
138	0.68	32.739891	71.307678	-609.659	-14.789216	86.174583	-616.71991	103.95881	523.52435	-450.0596	12.08042	513.888	-473.68585	224.504	982.19202	-614.89514	-36.951519	1020.2334	-817.2749	-199.62631	494.83093	-771.78827	-247.89587	557.89166	-822.08887	83.951828	263.57224	-1028.4983	54.774776	327.37686	-1095.1652
139	0.685	35.313583	73.087883	-609.63599	-14.360444	86.3181	-617.0188	105.24616	523.15466	-449.51654	12.9393	513.3139	-472.7561	226.25101	982.93689	-612.6355	-38.390724	1023.5861	-811.5752	-210.3884	501.52457	-755.8573	-258.8204	565.04382	-806.27338	71.123833	270.07373	-1015.1431	42.128361	334.59354	-1081.4053
140	0.69	35.713718	73.211624	-609.64197	-14.410564	86.720337	-616.48535	106.75871	522.79333	-449.06537	14.71564	513.46033	-471.63992	227.91409	983.73492	-610.56531	-41.161747	1026.6038	-803.06293	-220.82007	508.80081	-739.92468	-269.46936	572.7196	-789.89716	58.130955	276.59842	-1001.8164	29.721264	342.12311	-1067.4307
141	0.695	36.120731	73.342575	-609.67639	-14.450911	87.184875	-616.21936	108.30782	522.49017	-448.754	15.920135	513.13617	-470.46704	229.63448	984.50604	-608.55206	-43.360451	1029.9733	-795.29114	-237.33301	519.98077	-714.26068	-279.37711	581.16101	-773.82599	45.08802	282.98355	-988.08636	17.246456	349.57242	-1053.1481
142	0.7	36.345024	73.372513	-609.60211	-13.510606	87.666672	-616.25348	110.15321	522.19214	-448.59991	17.906237	513.16089	-469.81729	231.77412	985.00049	-607.2392	-44.209019	1033.771	-789.86151	-246.85062	528.41693	-697.93073	-289.24646	589.69519	-756.96838	32.018127	289.56726	-974.33142	4.6664982	357.02005	-1038.5673
143	0.705	36.893486	73.434334	-609.7464	-13.109413	88.07048	-617.0921	112.16246	521.94958	-448.58661	19.057796	512.9693	-468.10724	233.6394	985.69843	-605.95184	-47.046146	1036.9149	-780.30481	-256.49524	536.85217	-680.75952	-299.09549	598.5694	-739.46271	18.831587	296.40698	-960.59216	-7.8400903	365.02289	-1024.0791
144	0.71	37.606537	73.856529	-609.74237	-12.644086	88.847954	-616.74304	114.35135	521.76245	-448.70984	21.817173	513.58441	-467.92313	235.58012	986.18011	-604.97809	-47.880402	1040.7009	-774.83044	-265.5152	545.87061	-663.56012	-308.01663	607.93408	-722.59637	5.4322591	303.55222	-946.7373	-20.771717	373.01416	-1009.3112
145	0.715	37.675995	73.701019	-609.66254	-12.320044	89.083862	-616.41583	116.62883	521.62598	-448.83231	24.123812	512.7265	-467.41928	237.06924	986.40668	-604.66431	-49.669559	1043.361	-764.89093	-274.06497	555.23914	-646.05243	-316.67294	617.77307	-705.01166	-7.4285264	311.15924	-932.98572	-33.815273	381.71457	-994.73785
146	0.72	38.510387	74.26577	-609.77216	-11.398339	88.665977	-615.94019	118.94958	521.47913	-449.05881	26.420036	512.67529	-466.75909	239.14487	987.95679	-603.27283	-50.932774	1047.1777	-757.66193	-282.13907	565.15796	-628.21069	-325.52426	627.50751	-686.43134	-21.044783	319.3371	-919.39984	-47.260506	390.56207	-980.03723
147	0.725	39.063896	74.551529	-609.82281	-11.217582	89.864204	-616.1922	121.54589	521.3147	-449.38019	28.599388	512.4588	-465.42169	240.8709	988.70026	-602.72571	-51.738979	1050.8599	-752.14038	-289.45612	575.62085	-610.33466	-333.29172	638.18805	-668.10944	-34.294228	328.02502	-905.87903	-60.83036	399.99338	-965.48303
